<svg width="172" height="69" viewBox="0 0 172 69" fill="none" xmlns="http://www.w3.org/2000/svg">
<g filter="url(#filter0_d)">
<path d="M63.1143 47.8927C63.1143 49.2312 62.2743 49.9005 60.5942 49.9005C58.942 49.9005 58.116 49.2312 58.116 47.8927V18.2361C58.116 16.8976 58.942 16.2283 60.5942 16.2283C62.2743 16.2283 63.1143 16.8976 63.1143 18.2361V47.8927Z" fill="#76F09B"/>
<path d="M91.643 30.5338C92.3711 30.5338 93.1271 30.6871 93.9112 30.9939C94.6953 31.3006 95.4513 31.705 96.1794 32.2069H96.1374C96.8654 32.7089 97.4255 33.3921 97.8175 34.2565C98.2095 35.121 98.4055 36.1109 98.4055 37.2264V42.9569C98.4055 45.2157 97.6495 46.9028 96.1374 48.0182C95.4093 48.548 94.6533 48.9663 93.8692 49.2731C93.1131 49.5519 92.3711 49.6914 91.643 49.6914H82.4863C81.7583 49.6914 81.0022 49.5519 80.2182 49.2731C79.4621 48.9663 78.7201 48.548 77.992 48.0182C76.4799 46.9028 75.7238 45.2157 75.7238 42.9569V40.1962C75.7238 38.8856 76.5499 38.2303 78.202 38.2303C79.8821 38.2303 80.7222 38.8856 80.7222 40.1962V42.6223C80.7222 43.3473 80.9322 44.0026 81.3523 44.5882C81.7723 45.1738 82.5003 45.4666 83.5364 45.4666H90.593C91.629 45.4666 92.3571 45.1738 92.7771 44.5882C93.1971 44.0026 93.4072 43.3473 93.4072 42.6223V37.561C93.4072 36.8639 93.1971 36.2225 92.7771 35.6369C92.3571 35.0234 91.629 34.7167 90.593 34.7167H82.4863C81.0302 34.7167 79.5321 34.1868 77.992 33.1272C76.4799 31.956 75.7238 30.2689 75.7238 28.0659V23.0883C75.7238 21.9728 75.9198 20.9968 76.3119 20.1602C76.7039 19.2958 77.2639 18.5986 77.992 18.0688H77.95C78.678 17.5947 79.4341 17.2043 80.2182 16.8976C81.0022 16.5908 81.7583 16.4375 82.4863 16.4375H91.643C92.3711 16.4375 93.1271 16.5908 93.9112 16.8976C94.6953 17.2043 95.4513 17.5947 96.1794 18.0688H96.1374C96.8654 18.5986 97.4255 19.2958 97.8175 20.1602C98.2095 20.9968 98.4055 21.9728 98.4055 23.0883V25.5561C98.4055 26.8668 97.5655 27.5221 95.8854 27.5221C94.2332 27.5221 93.4072 26.8668 93.4072 25.5561V23.4647C93.4072 22.7676 93.1971 22.1262 92.7771 21.5406C92.3571 20.955 91.629 20.6622 90.593 20.6622H83.5364C82.5003 20.6622 81.7723 20.955 81.3523 21.5406C80.9322 22.1262 80.7222 22.7676 80.7222 23.4647V27.7312C80.7222 28.4563 80.9322 29.1116 81.3523 29.6972C81.7723 30.2549 82.5003 30.5338 83.5364 30.5338H91.643Z" fill="#76F09B"/>
<path d="M124.711 30.5338C125.439 30.5338 126.195 30.6871 126.979 30.9939C127.763 31.3006 128.519 31.705 129.247 32.2069H129.205C129.933 32.7089 130.493 33.3921 130.885 34.2565C131.277 35.121 131.473 36.1109 131.473 37.2264V42.9569C131.473 45.2157 130.717 46.9028 129.205 48.0182C128.477 48.548 127.721 48.9663 126.937 49.2731C126.181 49.5519 125.439 49.6914 124.711 49.6914H115.554C114.826 49.6914 114.07 49.5519 113.286 49.2731C112.53 48.9663 111.788 48.548 111.06 48.0182C109.548 46.9028 108.791 45.2157 108.791 42.9569V40.1962C108.791 38.8856 109.618 38.2303 111.27 38.2303C112.95 38.2303 113.79 38.8856 113.79 40.1962V42.6223C113.79 43.3473 114 44.0026 114.42 44.5882C114.84 45.1738 115.568 45.4666 116.604 45.4666H123.661C124.697 45.4666 125.425 45.1738 125.845 44.5882C126.265 44.0026 126.475 43.3473 126.475 42.6223V37.561C126.475 36.8639 126.265 36.2225 125.845 35.6369C125.425 35.0234 124.697 34.7167 123.661 34.7167H115.554C114.098 34.7167 112.6 34.1868 111.06 33.1272C109.548 31.956 108.791 30.2689 108.791 28.0659V23.0883C108.791 21.9728 108.987 20.9968 109.38 20.1602C109.772 19.2958 110.332 18.5986 111.06 18.0688H111.018C111.746 17.5947 112.502 17.2043 113.286 16.8976C114.07 16.5908 114.826 16.4375 115.554 16.4375H124.711C125.439 16.4375 126.195 16.5908 126.979 16.8976C127.763 17.2043 128.519 17.5947 129.247 18.0688H129.205C129.933 18.5986 130.493 19.2958 130.885 20.1602C131.277 20.9968 131.473 21.9728 131.473 23.0883V25.5561C131.473 26.8668 130.633 27.5221 128.953 27.5221C127.301 27.5221 126.475 26.8668 126.475 25.5561V23.4647C126.475 22.7676 126.265 22.1262 125.845 21.5406C125.425 20.955 124.697 20.6622 123.661 20.6622H116.604C115.568 20.6622 114.84 20.955 114.42 21.5406C114 22.1262 113.79 22.7676 113.79 23.4647V27.7312C113.79 28.4563 114 29.1116 114.42 29.6972C114.84 30.2549 115.568 30.5338 116.604 30.5338H124.711Z" fill="#76F09B"/>
<path fill-rule="evenodd" clip-rule="evenodd" d="M6.40515 30.6593C6.40515 29.3309 7.4307 28.2541 8.69577 28.2541L52.2176 28.2541C53.4827 28.2541 54.5082 29.3309 54.5082 30.6593C54.5082 31.9876 53.4827 33.0644 52.2176 33.0644L8.69577 33.0644C7.4307 33.0644 6.40515 31.9876 6.40515 30.6593Z" fill="white"/>
<path fill-rule="evenodd" clip-rule="evenodd" d="M36.4696 18.6335C37.7979 18.6335 38.8748 19.682 38.8748 20.9753L38.8748 60.787C38.8748 62.0804 37.7979 63.1288 36.4696 63.1288C35.1413 63.1288 34.0644 62.0804 34.0644 60.787L34.0644 20.9753C34.0644 19.682 35.1413 18.6335 36.4696 18.6335Z" fill="white"/>
<path fill-rule="evenodd" clip-rule="evenodd" d="M4 47.345C4 46.0997 5.00952 45.0902 6.25483 45.0902H22.0387L22.0387 60.874C22.0387 62.1193 21.0291 63.1289 19.7838 63.1289C18.5385 63.1289 17.529 62.1193 17.529 60.874L17.529 49.5999H6.25483C5.00952 49.5999 4 48.5904 4 47.345Z" fill="white"/>
<path fill-rule="evenodd" clip-rule="evenodd" d="M17 47.5C17 46.1193 18.0676 45 19.3846 45L45.6154 45C46.9324 45 48 46.1193 48 47.5C48 48.8807 46.9324 50 45.6154 50L19.3846 50C18.0676 50 17 48.8807 17 47.5Z" fill="#76F09B"/>
<path fill-rule="evenodd" clip-rule="evenodd" d="M19.5 3C20.8807 3 22 4.02975 22 5.3L22 46.7C22 47.9703 20.8807 49 19.5 49C18.1193 49 17 47.9703 17 46.7L17 5.3C17 4.02974 18.1193 3 19.5 3Z" fill="#76F09B"/>
<path fill-rule="evenodd" clip-rule="evenodd" d="M143.234 16.6274C144.01 15.6128 145.462 15.4193 146.476 16.1951L166.134 31.2273C167.149 32.0032 167.342 33.4546 166.566 34.4692C165.79 35.4838 164.339 35.6773 163.324 34.9014L143.667 19.8693C142.652 19.0934 142.459 17.642 143.234 16.6274Z" fill="#76F09B"/>
<path fill-rule="evenodd" clip-rule="evenodd" d="M143.189 48.2829C142.447 47.243 142.689 45.7988 143.729 45.0573L163.353 31.0652C164.392 30.3237 165.837 30.5656 166.578 31.6056C167.32 32.6455 167.078 34.0897 166.038 34.8312L146.414 48.8233C145.374 49.5648 143.93 49.3229 143.189 48.2829Z" fill="#76F09B"/>
<path d="M151.917 33.0644C151.917 35.7211 149.763 37.8747 147.107 37.8747C144.45 37.8747 142.296 35.7211 142.296 33.0644C142.296 30.4078 144.45 28.2541 147.107 28.2541C149.763 28.2541 151.917 30.4078 151.917 33.0644Z" fill="white"/>
</g>
<defs>
<filter id="filter0_d" x="0" y="0" width="172" height="68.1289" filterUnits="userSpaceOnUse" color-interpolation-filters="sRGB">
<feFlood flood-opacity="0" result="BackgroundImageFix"/>
<feColorMatrix in="SourceAlpha" type="matrix" values="0 0 0 0 0 0 0 0 0 0 0 0 0 0 0 0 0 0 127 0"/>
<feOffset dy="1"/>
<feGaussianBlur stdDeviation="2"/>
<feColorMatrix type="matrix" values="0 0 0 0 0 0 0 0 0 0 0 0 0 0 0 0 0 0 0.25 0"/>
<feBlend mode="normal" in2="BackgroundImageFix" result="effect1_dropShadow"/>
<feBlend mode="normal" in="SourceGraphic" in2="effect1_dropShadow" result="shape"/>
</filter>
</defs>
</svg>
