<svg width="164" height="61" viewBox="0 0 164 61" fill="none" xmlns="http://www.w3.org/2000/svg">
  <path d="M59.1143 44.8927C59.1143 46.2312 58.2743 46.9005 56.5942 46.9005C54.942 46.9005 54.116 46.2312 54.116 44.8927V15.2361C54.116 13.8976 54.942 13.2283 56.5942 13.2283C58.2743 13.2283 59.1143 13.8976 59.1143 15.2361V44.8927Z" fill="#76F09B"/>
  <path d="M87.643 27.5338C88.3711 27.5338 89.1271 27.6871 89.9112 27.9939C90.6953 28.3006 91.4513 28.705 92.1794 29.2069H92.1374C92.8654 29.7089 93.4255 30.3921 93.8175 31.2565C94.2095 32.121 94.4055 33.1109 94.4055 34.2264V39.9569C94.4055 42.2157 93.6495 43.9028 92.1374 45.0182C91.4093 45.548 90.6533 45.9663 89.8692 46.2731C89.1131 46.5519 88.3711 46.6914 87.643 46.6914H78.4863C77.7583 46.6914 77.0022 46.5519 76.2182 46.2731C75.4621 45.9663 74.7201 45.548 73.992 45.0182C72.4799 43.9028 71.7238 42.2157 71.7238 39.9569V37.1962C71.7238 35.8856 72.5499 35.2303 74.202 35.2303C75.8821 35.2303 76.7222 35.8856 76.7222 37.1962V39.6223C76.7222 40.3473 76.9322 41.0026 77.3523 41.5882C77.7723 42.1738 78.5003 42.4666 79.5364 42.4666H86.5929C87.629 42.4666 88.3571 42.1738 88.7771 41.5882C89.1971 41.0026 89.4072 40.3473 89.4072 39.6223V34.561C89.4072 33.8639 89.1971 33.2225 88.7771 32.6369C88.3571 32.0234 87.629 31.7167 86.5929 31.7167H78.4863C77.0302 31.7167 75.5321 31.1868 73.992 30.1272C72.4799 28.956 71.7238 27.2689 71.7238 25.0659V20.0883C71.7238 18.9728 71.9198 17.9968 72.3119 17.1602C72.7039 16.2958 73.2639 15.5986 73.992 15.0688H73.95C74.678 14.5947 75.4341 14.2043 76.2182 13.8976C77.0022 13.5908 77.7583 13.4375 78.4863 13.4375H87.643C88.3711 13.4375 89.1271 13.5908 89.9112 13.8976C90.6953 14.2043 91.4513 14.5947 92.1794 15.0688H92.1374C92.8654 15.5986 93.4255 16.2958 93.8175 17.1602C94.2095 17.9968 94.4055 18.9728 94.4055 20.0883V22.5561C94.4055 23.8668 93.5655 24.5221 91.8854 24.5221C90.2332 24.5221 89.4072 23.8668 89.4072 22.5561V20.4647C89.4072 19.7676 89.1971 19.1262 88.7771 18.5406C88.3571 17.955 87.629 17.6622 86.5929 17.6622H79.5364C78.5003 17.6622 77.7723 17.955 77.3523 18.5406C76.9322 19.1262 76.7222 19.7676 76.7222 20.4647V24.7312C76.7222 25.4563 76.9322 26.1116 77.3523 26.6972C77.7723 27.2549 78.5003 27.5338 79.5364 27.5338H87.643Z" fill="#76F09B"/>
  <path d="M120.711 27.5338C121.439 27.5338 122.195 27.6871 122.979 27.9939C123.763 28.3006 124.519 28.705 125.247 29.2069H125.205C125.933 29.7089 126.493 30.3921 126.885 31.2565C127.277 32.121 127.473 33.1109 127.473 34.2264V39.9569C127.473 42.2157 126.717 43.9028 125.205 45.0182C124.477 45.548 123.721 45.9663 122.937 46.2731C122.181 46.5519 121.439 46.6914 120.711 46.6914H111.554C110.826 46.6914 110.07 46.5519 109.286 46.2731C108.53 45.9663 107.788 45.548 107.06 45.0182C105.548 43.9028 104.791 42.2157 104.791 39.9569V37.1962C104.791 35.8856 105.618 35.2303 107.27 35.2303C108.95 35.2303 109.79 35.8856 109.79 37.1962V39.6223C109.79 40.3473 110 41.0026 110.42 41.5882C110.84 42.1738 111.568 42.4666 112.604 42.4666H119.661C120.697 42.4666 121.425 42.1738 121.845 41.5882C122.265 41.0026 122.475 40.3473 122.475 39.6223V34.561C122.475 33.8639 122.265 33.2225 121.845 32.6369C121.425 32.0234 120.697 31.7167 119.661 31.7167H111.554C110.098 31.7167 108.6 31.1868 107.06 30.1272C105.548 28.956 104.791 27.2689 104.791 25.0659V20.0883C104.791 18.9728 104.987 17.9968 105.38 17.1602C105.772 16.2958 106.332 15.5986 107.06 15.0688H107.018C107.746 14.5947 108.502 14.2043 109.286 13.8976C110.07 13.5908 110.826 13.4375 111.554 13.4375H120.711C121.439 13.4375 122.195 13.5908 122.979 13.8976C123.763 14.2043 124.519 14.5947 125.247 15.0688H125.205C125.933 15.5986 126.493 16.2958 126.885 17.1602C127.277 17.9968 127.473 18.9728 127.473 20.0883V22.5561C127.473 23.8668 126.633 24.5221 124.953 24.5221C123.301 24.5221 122.475 23.8668 122.475 22.5561V20.4647C122.475 19.7676 122.265 19.1262 121.845 18.5406C121.425 17.955 120.697 17.6622 119.661 17.6622H112.604C111.568 17.6622 110.84 17.955 110.42 18.5406C110 19.1262 109.79 19.7676 109.79 20.4647V24.7312C109.79 25.4563 110 26.1116 110.42 26.6972C110.84 27.2549 111.568 27.5338 112.604 27.5338H120.711Z" fill="#76F09B"/>
  <path fill-rule="evenodd" clip-rule="evenodd" d="M2.40515 27.6593C2.40515 26.3309 3.4307 25.2541 4.69577 25.2541L48.2176 25.2541C49.4827 25.2541 50.5082 26.3309 50.5082 27.6593C50.5082 28.9876 49.4827 30.0644 48.2176 30.0644L4.69577 30.0644C3.4307 30.0644 2.40515 28.9876 2.40515 27.6593Z" fill="#3C8894"/>
  <path fill-rule="evenodd" clip-rule="evenodd" d="M32.4696 15.6335C33.7979 15.6335 34.8748 16.682 34.8748 17.9753L34.8748 57.787C34.8748 59.0804 33.7979 60.1288 32.4696 60.1288C31.1413 60.1288 30.0644 59.0804 30.0644 57.787L30.0644 17.9753C30.0644 16.682 31.1413 15.6335 32.4696 15.6335Z" fill="#3C8894"/>
  <path fill-rule="evenodd" clip-rule="evenodd" d="M0 44.345C0 43.0997 1.00952 42.0902 2.25483 42.0902H18.0387L18.0387 57.874C18.0387 59.1193 17.0291 60.1289 15.7838 60.1289C14.5385 60.1289 13.529 59.1193 13.529 57.874L13.529 46.5999H2.25483C1.00952 46.5999 0 45.5904 0 44.345Z" fill="#3C8894"/>
  <path fill-rule="evenodd" clip-rule="evenodd" d="M13 44.5C13 43.1193 14.0676 42 15.3846 42L41.6154 42C42.9324 42 44 43.1193 44 44.5C44 45.8807 42.9324 47 41.6154 47L15.3846 47C14.0676 47 13 45.8807 13 44.5Z" fill="#76F09B"/>
  <path fill-rule="evenodd" clip-rule="evenodd" d="M15.5 -1.09278e-07C16.8807 -4.89256e-08 18 1.02975 18 2.3L18 43.7C18 44.9703 16.8807 46 15.5 46C14.1193 46 13 44.9703 13 43.7L13 2.3C13 1.02974 14.1193 -1.69631e-07 15.5 -1.09278e-07Z" fill="#76F09B"/>
  <path fill-rule="evenodd" clip-rule="evenodd" d="M139.234 13.6274C140.01 12.6128 141.462 12.4193 142.476 13.1951L162.134 28.2273C163.149 29.0032 163.342 30.4546 162.566 31.4692C161.79 32.4838 160.339 32.6773 159.324 31.9014L139.667 16.8693C138.652 16.0934 138.459 14.642 139.234 13.6274Z" fill="#76F09B"/>
  <path fill-rule="evenodd" clip-rule="evenodd" d="M139.189 45.2829C138.447 44.243 138.689 42.7988 139.729 42.0573L159.353 28.0652C160.392 27.3237 161.837 27.5656 162.578 28.6056C163.32 29.6455 163.078 31.0897 162.038 31.8312L142.414 45.8233C141.374 46.5648 139.93 46.3229 139.189 45.2829Z" fill="#76F09B"/>
  <path d="M147.917 30.0644C147.917 32.7211 145.763 34.8747 143.107 34.8747C140.45 34.8747 138.296 32.7211 138.296 30.0644C138.296 27.4078 140.45 25.2541 143.107 25.2541C145.763 25.2541 147.917 27.4078 147.917 30.0644Z" fill="#3C8894"/>
</svg>